<?xml version="1.0" standalone="no"?>
<!DOCTYPE svg PUBLIC "-//W3C//DTD SVG 20010904//EN"
 "http://www.w3.org/TR/2001/REC-SVG-20010904/DTD/svg10.dtd">
<svg version="1.0" xmlns="http://www.w3.org/2000/svg"
 width="3106.000000pt" height="541.000000pt" viewBox="0 0 3106.000000 541.000000"
 preserveAspectRatio="xMidYMid meet">

<g transform="translate(0.000000,541.000000) scale(0.100000,-0.100000)"
fill="#000000" stroke="none">
<path d="M1830 4603 c-58 -20 -106 -37 -108 -38 -1 -1 -140 -424 -308 -941
-168 -516 -321 -968 -339 -1004 -19 -37 -50 -81 -69 -98 -32 -28 -55 -37 -138
-56 -26 -6 -28 -10 -28 -56 l0 -50 330 0 330 0 0 48 0 48 -72 12 c-74 11 -107
29 -142 76 -18 23 -21 42 -21 119 1 82 6 110 53 262 29 94 55 178 58 188 5 16
33 17 399 17 l394 0 80 -244 c91 -273 97 -315 55 -365 -28 -33 -65 -46 -161
-57 l-63 -7 0 -48 0 -49 410 0 410 0 0 49 c0 53 -9 61 -73 61 -71 0 -136 53
-177 145 -15 33 -175 502 -356 1042 -245 731 -333 983 -344 982 -8 0 -62 -17
-120 -36z m114 -796 c91 -285 166 -522 166 -527 0 -6 -126 -10 -341 -10 l-340
0 7 23 c3 12 74 229 156 482 82 253 156 482 164 508 9 27 17 47 19 45 2 -2 78
-236 169 -521z"/>
<path d="M23955 4616 c-81 -21 -155 -57 -215 -106 -153 -123 -222 -266 -224
-460 -1 -116 12 -184 54 -275 81 -179 222 -289 467 -366 399 -125 516 -176
599 -257 140 -138 151 -401 23 -562 -85 -107 -197 -160 -342 -160 -232 0 -489
153 -711 423 l-78 94 -44 -16 c-24 -9 -46 -20 -49 -23 -6 -5 199 -573 212
-587 2 -3 38 14 81 36 125 67 131 67 268 21 66 -21 152 -46 192 -54 95 -18
230 -18 311 1 284 67 489 367 467 684 -20 273 -154 456 -415 566 -43 18 -153
54 -244 79 -354 99 -472 166 -544 313 -26 53 -28 67 -28 168 0 103 2 114 32
177 64 135 172 208 320 216 223 12 442 -136 677 -456 l46 -62 40 22 c22 13 40
28 40 34 0 6 -45 132 -99 280 -65 175 -104 268 -113 267 -7 -1 -44 -13 -83
-27 -90 -33 -118 -32 -245 5 -124 36 -308 48 -395 25z"/>
<path d="M3000 4536 l0 -53 83 -5 c105 -5 154 -28 182 -83 20 -39 20 -60 20
-865 l0 -825 -23 -56 c-38 -95 -112 -151 -216 -165 l-46 -7 0 -58 0 -59 360 0
360 0 0 60 c0 60 0 60 -30 60 -49 0 -135 38 -173 77 -20 20 -47 61 -59 92
l-23 56 -2 850 c-1 474 2 841 6 830 8 -17 716 -1921 743 -1997 9 -25 15 -28
54 -28 24 0 44 2 44 4 0 8 742 2061 746 2066 3 2 3 -410 2 -915 -3 -897 -3
-921 -23 -959 -31 -62 -60 -77 -169 -89 l-96 -10 0 -49 0 -48 440 0 440 0 0
49 0 49 -82 7 c-111 9 -160 33 -185 88 -17 39 -18 92 -21 877 -4 912 -2 952
47 1001 31 30 102 49 186 49 l55 0 0 55 0 55 -333 0 -333 0 -323 -885 c-179
-487 -328 -882 -332 -878 -7 7 -659 1749 -659 1759 0 2 -144 4 -320 4 l-320 0
0 -54z"/>
<path d="M5820 4536 l0 -53 84 -5 c107 -7 154 -29 181 -83 19 -39 20 -63 23
-890 2 -589 -1 -865 -8 -902 -20 -97 -63 -125 -207 -139 l-73 -7 0 -48 0 -49
445 0 445 0 0 49 0 48 -82 7 c-101 9 -161 33 -182 74 -34 65 -37 156 -34 987
3 811 3 821 24 866 28 61 70 80 186 87 l88 5 0 53 0 54 -445 0 -445 0 0 -54z"/>
<path d="M6933 4320 l-91 -269 46 -15 c25 -9 47 -16 48 -16 2 0 45 51 97 113
119 141 247 264 313 299 98 53 255 75 314 45 51 -26 51 -22 48 -982 l-3 -890
-25 -50 c-31 -62 -58 -76 -177 -89 l-93 -10 0 -48 0 -48 445 0 445 0 0 49 0
48 -82 7 c-109 10 -159 32 -184 82 -18 38 -19 74 -22 954 -1 503 0 925 3 937
20 81 249 66 385 -26 59 -39 188 -169 288 -288 46 -57 86 -103 87 -103 1 0 23
7 49 16 36 13 46 20 41 33 -3 9 -45 130 -92 269 l-86 252 -831 0 -831 0 -92
-270z"/>
<path d="M8940 4536 l0 -53 51 -6 c70 -9 118 -36 155 -88 18 -24 154 -286 304
-581 l271 -537 -3 -348 c-3 -330 -4 -350 -24 -383 -27 -47 -62 -62 -171 -74
l-93 -10 0 -48 0 -48 445 0 445 0 0 49 0 48 -82 7 c-102 9 -161 33 -183 75
-26 52 -34 162 -35 470 l0 293 136 262 c75 143 155 297 179 341 23 44 84 160
134 257 66 125 106 190 139 224 46 46 129 94 165 94 14 0 17 9 17 55 l0 55
-320 0 -320 0 0 -54 0 -53 65 -6 c70 -7 109 -22 140 -57 16 -17 20 -36 19 -84
0 -59 -7 -74 -208 -475 l-207 -414 -186 354 c-260 496 -306 592 -298 618 10
33 62 53 150 60 l80 6 3 53 3 52 -385 0 -386 0 0 -54z"/>
<path d="M11450 4535 l0 -55 55 0 c75 0 149 -17 181 -42 60 -48 58 -26 65
-808 5 -690 6 -718 27 -797 80 -304 271 -472 590 -514 111 -15 345 -6 432 16
87 22 214 86 272 135 94 81 171 230 211 405 18 83 20 139 27 720 5 550 8 636
23 680 37 110 87 157 196 183 l71 17 0 58 0 57 -360 0 -360 0 0 -58 0 -58 62
-12 c126 -23 195 -97 218 -232 7 -44 10 -264 8 -680 -4 -601 -4 -617 -26 -695
-61 -219 -167 -334 -357 -391 -75 -23 -274 -26 -355 -5 -188 47 -304 165 -357
362 -15 57 -17 139 -20 754 -4 754 -2 803 46 854 30 32 98 51 186 51 l55 0 0
55 0 55 -445 0 -445 0 0 -55z"/>
<path d="M13700 4537 l0 -54 73 -12 c79 -13 157 -45 212 -87 l36 -27 -3 -826
c-3 -906 0 -857 -63 -953 -31 -47 -114 -88 -194 -95 l-61 -6 0 -58 0 -59 390
0 390 0 0 59 0 58 -61 6 c-80 7 -163 48 -194 95 -62 95 -60 55 -63 877 l-3
749 39 -54 c22 -30 138 -197 258 -371 120 -173 399 -575 619 -892 l400 -576
57 -1 57 0 3 968 3 967 22 56 c39 95 119 151 236 165 l57 7 0 58 0 59 -390 0
-390 0 0 -59 0 -58 58 -7 c119 -13 196 -71 237 -178 19 -51 20 -81 23 -743 2
-417 -1 -686 -6 -680 -5 6 -243 343 -528 750 -285 407 -554 792 -599 855 l-80
115 -268 3 -267 2 0 -53z"/>
<path d="M16040 4536 l0 -53 84 -6 c95 -7 148 -25 170 -59 33 -51 37 -150 34
-988 -3 -874 -3 -864 -50 -916 -23 -26 -71 -40 -165 -49 l-73 -7 0 -49 0 -49
445 0 445 0 0 48 0 48 -92 10 c-143 16 -179 42 -198 146 -7 36 -10 348 -8 900
3 820 4 844 23 883 28 56 75 76 186 83 l89 5 0 53 0 54 -445 0 -445 0 0 -54z"/>
<path d="M17060 4537 l0 -53 51 -13 c47 -12 126 -63 157 -100 39 -47 85 -128
110 -193 16 -40 170 -484 343 -985 l313 -913 42 0 c41 0 43 2 57 43 13 38 446
1285 604 1741 82 237 104 285 149 335 35 39 120 81 164 81 17 0 20 7 20 55 l0
55 -330 0 -330 0 0 -55 c0 -52 1 -55 25 -55 56 0 128 -23 161 -52 46 -41 60
-92 47 -167 -12 -60 -469 -1430 -482 -1444 -10 -10 -522 1468 -528 1525 -3 26
0 55 7 67 17 32 85 59 168 67 l72 7 0 53 0 54 -410 0 -410 0 0 -53z"/>
<path d="M19250 4536 l0 -53 83 -5 c108 -7 160 -29 184 -76 17 -35 18 -85 18
-927 0 -859 -1 -891 -19 -929 -25 -50 -74 -72 -183 -81 l-83 -7 0 -49 0 -49
822 2 821 3 103 280 c57 154 104 283 104 286 0 7 -81 42 -84 37 -16 -28 -134
-163 -189 -215 -175 -166 -363 -250 -618 -275 -197 -19 -301 8 -341 90 -23 46
-23 52 -26 471 l-3 423 163 -4 c141 -4 171 -8 223 -28 114 -44 186 -143 217
-297 l11 -53 48 0 49 0 0 430 0 430 -50 0 c-46 0 -50 -2 -56 -27 -38 -173
-102 -258 -230 -304 -48 -17 -90 -23 -217 -27 l-158 -4 4 378 c4 416 6 434 63
484 43 37 108 50 260 50 147 0 236 -17 343 -66 122 -56 249 -165 374 -321 l58
-71 39 15 c22 9 40 20 40 25 0 5 -48 123 -107 263 l-106 255 -779 0 -778 0 0
-54z"/>
<path d="M21360 4536 l0 -56 55 0 c139 0 207 -37 225 -123 7 -36 10 -320 8
-912 -3 -826 -4 -862 -22 -899 -25 -50 -75 -72 -183 -82 l-83 -7 0 -48 0 -49
445 0 445 0 0 49 0 48 -82 7 c-117 10 -163 33 -191 93 -21 47 -22 60 -25 466
l-4 417 119 0 119 0 296 -537 295 -538 267 -3 266 -2 0 49 0 49 -67 7 c-139
15 -218 68 -306 206 -57 89 -448 781 -444 785 2 2 48 15 103 29 181 46 288
100 371 187 60 65 88 115 108 200 29 123 13 273 -42 385 -34 71 -129 168 -205
212 -70 39 -178 77 -283 98 -66 13 -180 16 -632 20 l-553 5 0 -56z m1042 -60
c206 -37 315 -146 348 -348 30 -188 -13 -364 -111 -452 -97 -88 -216 -116
-494 -116 l-195 0 0 338 c1 458 11 521 88 558 72 34 234 43 364 20z"/>
<path d="M25210 4536 l0 -53 84 -6 c95 -7 148 -25 170 -59 8 -12 20 -52 25
-88 15 -92 15 -1632 0 -1717 -19 -108 -56 -134 -206 -149 l-73 -7 0 -48 0 -49
445 0 445 0 0 48 0 48 -92 10 c-143 16 -179 42 -198 146 -7 36 -10 348 -8 900
3 820 4 844 23 883 28 56 75 76 186 83 l89 5 0 53 0 54 -445 0 -445 0 0 -54z"/>
<path d="M26327 4338 c-47 -139 -89 -260 -92 -269 -5 -13 5 -20 41 -33 26 -9
48 -16 49 -16 1 0 42 48 90 106 104 125 222 244 284 284 68 46 148 72 233 78
89 5 135 -8 149 -45 5 -14 9 -403 9 -926 -1 -1029 3 -983 -78 -1024 -28 -14
-72 -24 -127 -28 l-85 -7 0 -49 0 -49 445 0 445 0 0 49 0 48 -82 7 c-102 9
-161 33 -183 75 -8 17 -20 64 -25 104 -5 40 -10 448 -10 915 0 918 -1 901 55
922 68 26 215 3 309 -48 82 -44 245 -208 383 -385 l22 -29 50 17 49 16 -92
269 -91 270 -831 0 -831 0 -86 -252z"/>
<path d="M28320 4536 l0 -53 56 -7 c66 -8 98 -23 141 -68 20 -20 140 -245 313
-587 l281 -553 -3 -342 c-3 -313 -5 -344 -22 -380 -25 -50 -75 -72 -183 -82
l-83 -7 0 -48 0 -49 445 0 445 0 0 49 0 48 -77 7 c-152 13 -182 32 -208 131
-12 48 -15 123 -15 386 l0 326 265 508 c146 279 281 528 301 552 39 48 120 99
172 109 31 6 32 7 32 60 l0 54 -319 0 -318 0 -7 -46 c-3 -25 -4 -49 -1 -54 2
-4 31 -10 64 -13 122 -11 180 -69 166 -164 -4 -29 -78 -188 -212 -456 l-204
-410 -28 49 c-104 186 -453 869 -457 896 -4 25 -1 38 13 50 25 23 88 38 156
38 l57 0 0 55 0 55 -385 0 -385 0 0 -54z"/>
<path d="M19879 1681 c-159 -49 -226 -224 -136 -359 23 -33 65 -68 147 -124
63 -43 132 -97 154 -119 35 -37 38 -45 33 -81 -7 -50 -32 -77 -78 -84 -70 -11
-119 36 -119 116 l0 30 -95 0 -95 0 0 -49 c0 -106 56 -190 144 -216 27 -8 89
-15 137 -15 188 0 284 73 296 224 10 124 -23 170 -208 292 -171 112 -205 170
-140 235 31 31 67 37 104 18 29 -16 35 -26 48 -76 l11 -43 89 0 89 0 0 38 c0
101 -64 188 -153 210 -51 13 -188 15 -228 3z"/>
<path d="M9842 1333 c3 -294 6 -355 20 -390 25 -64 55 -98 112 -129 44 -24 65
-29 149 -32 163 -7 246 27 292 122 37 76 45 160 45 484 l0 292 -95 0 -95 0 0
-321 c0 -424 -6 -444 -121 -444 -69 0 -95 19 -109 81 -5 21 -10 184 -10 362
l0 322 -96 0 -95 0 3 -347z"/>
<path d="M10750 1610 l0 -69 103 -3 102 -3 3 -372 2 -373 95 0 95 0 0 375 0
375 105 0 105 0 0 70 0 70 -305 0 -305 0 0 -70z"/>
<path d="M11580 1610 l0 -70 100 0 100 0 0 -375 0 -375 100 0 100 0 0 375 0
375 105 0 105 0 0 70 0 70 -305 0 -305 0 0 -70z"/>
<path d="M12531 1247 c-68 -237 -126 -438 -128 -444 -4 -10 18 -13 91 -13 91
0 96 1 101 23 3 12 14 56 23 97 l17 75 135 0 134 0 24 -97 24 -98 98 0 99 0
-23 83 c-13 45 -69 245 -126 445 l-103 362 -121 0 -121 0 -124 -433z m293 58
c24 -96 41 -177 38 -180 -7 -6 -177 -7 -183 0 -5 4 43 199 81 335 15 54 11 63
64 -155z"/>
<path d="M13440 1235 l0 -445 95 0 95 0 0 185 0 185 50 0 c100 0 130 -37 130
-164 0 -39 3 -101 7 -138 l6 -68 100 0 c90 0 99 2 92 18 -4 9 -11 85 -15 167
-8 179 -18 207 -87 237 l-46 20 30 13 c67 29 98 105 91 230 -10 174 -66 205
-375 205 l-173 0 0 -445z m336 282 c22 -19 28 -34 31 -78 8 -98 -21 -133 -119
-143 l-58 -5 0 125 0 124 59 0 c48 0 65 -5 87 -23z"/>
<path d="M15160 1235 l0 -445 100 0 100 0 0 180 0 180 109 0 c59 0 123 5 142
11 79 27 127 105 136 222 8 105 -10 181 -56 228 -54 57 -112 69 -343 69 l-188
0 0 -445z m352 294 c41 -22 58 -99 37 -172 -13 -47 -52 -67 -134 -67 l-55 0 0
125 0 125 66 0 c36 0 74 -5 86 -11z"/>
<path d="M16050 1235 l0 -445 95 0 95 0 2 183 3 182 47 3 c25 2 62 -4 81 -12
45 -18 57 -57 57 -186 0 -52 3 -112 6 -132 l7 -38 99 0 c92 0 100 2 93 18 -4
9 -11 82 -15 162 -5 80 -14 160 -20 177 -12 33 -64 73 -94 73 -9 0 -16 5 -16
10 0 6 7 10 16 10 9 0 31 15 49 33 81 81 68 317 -22 368 -49 29 -129 39 -308
39 l-175 0 0 -445z m345 283 c52 -46 40 -185 -18 -207 -13 -5 -48 -11 -78 -13
l-54 -3 -3 123 -3 122 65 0 c53 0 70 -4 91 -22z"/>
<path d="M17140 1676 c0 -2 -56 -200 -125 -439 -69 -240 -125 -438 -125 -441
0 -3 42 -6 93 -6 l93 0 24 100 24 100 132 0 132 0 24 -97 24 -98 97 -3 c74 -2
97 0 97 10 -1 7 -56 207 -123 443 l-122 430 -123 3 c-67 1 -122 1 -122 -2z
m169 -358 c22 -92 41 -174 41 -183 0 -12 -17 -15 -96 -15 -95 0 -96 0 -90 23
3 12 25 97 48 189 24 92 46 164 49 160 3 -4 25 -82 48 -174z"/>
<path d="M17940 1234 l0 -446 198 5 c216 4 253 11 308 59 73 64 104 179 104
381 0 219 -33 331 -117 394 -58 43 -117 53 -318 53 l-175 0 0 -446z m356 291
c13 -8 30 -25 38 -38 25 -38 39 -163 33 -304 -8 -209 -39 -253 -177 -253 l-60
0 0 311 0 312 71 -6 c39 -3 82 -13 95 -22z"/>
<path d="M18890 1235 l0 -445 250 0 250 0 0 70 0 70 -155 0 -155 0 0 130 0
129 138 3 137 3 3 68 3 67 -141 0 -140 0 0 105 0 105 150 0 150 0 0 70 0 70
-245 0 -245 0 0 -445z"/>
<path d="M20600 1235 l0 -445 95 0 95 0 0 201 0 200 103 -3 102 -3 3 -197 2
-198 90 0 90 0 0 445 0 445 -90 0 -90 0 -2 -172 -3 -173 -102 -3 -103 -3 0
176 0 175 -95 0 -95 0 0 -445z"/>
<path d="M720 1235 l0 -55 4290 0 4290 0 0 55 0 55 -4290 0 -4290 0 0 -55z"/>
<path d="M21600 1235 l0 -55 4290 0 4290 0 0 55 0 55 -4290 0 -4290 0 0 -55z"/>
</g>
</svg>
